<?xml version="1.0" standalone="no"?><!DOCTYPE svg PUBLIC "-//W3C//DTD SVG 1.1//EN" "http://www.w3.org/Graphics/SVG/1.1/DTD/svg11.dtd"><svg t="1763346568877" class="icon" viewBox="0 0 1024 1024" version="1.1" xmlns="http://www.w3.org/2000/svg" p-id="44467" xmlns:xlink="http://www.w3.org/1999/xlink" width="20" height="20"><path d="M682.666667 725.333333v-42.666666h-128v-128h128v85.333333h85.333333v85.333333h-42.666667v85.333334h-85.333333v85.333333h-85.333333v-128h85.333333v-42.666667h42.666667z m213.333333 170.666667h-170.666667v-85.333333h85.333334v-85.333334h85.333333v170.666667zM128 128h341.333333v341.333333H128V128z m85.333333 85.333333v170.666667h170.666667V213.333333H213.333333z m341.333334-85.333333h341.333333v341.333333h-341.333333V128z m85.333333 85.333333v170.666667h170.666667V213.333333h-170.666667zM128 554.666667h341.333333v341.333333H128v-341.333333z m85.333333 85.333333v170.666667h170.666667v-170.666667H213.333333z m554.666667-85.333333h128v85.333333h-128v-85.333333zM256 256h85.333333v85.333333H256V256z m0 426.666667h85.333333v85.333333H256v-85.333333zM682.666667 256h85.333333v85.333333h-85.333333V256z" fill="#ffffff" p-id="44468"></path></svg>