<?xml version="1.0" standalone="no"?><!DOCTYPE svg PUBLIC "-//W3C//DTD SVG 1.1//EN" "http://www.w3.org/Graphics/SVG/1.1/DTD/svg11.dtd"><svg t="1763346418896" class="icon" viewBox="0 0 1024 1024" version="1.1" xmlns="http://www.w3.org/2000/svg" p-id="36699" xmlns:xlink="http://www.w3.org/1999/xlink" width="20" height="20"><path d="M792.661333 663.082667c-51.626667 0-97.194667 26.624-123.733333 66.816l-236.245333-167.594667a197.248 197.248 0 0 0-8.917334-123.52l257.28-129.578667a147.626667 147.626667 0 0 0 111.616 50.901334 148.181333 148.181333 0 0 0 148.010667-148.010667 148.181333 148.181333 0 0 0-148.010667-148.010667 148.181333 148.181333 0 0 0-144.298666 180.906667L384.469333 378.026667a197.290667 197.290667 0 0 0-143.786666-61.994667A198.186667 198.186667 0 0 0 42.666667 513.962667c0 109.226667 88.789333 198.058667 197.973333 198.058666a198.186667 198.186667 0 0 0 161.322667-83.2l243.114666 172.373334a148.181333 148.181333 0 0 0 147.712 157.994666 148.181333 148.181333 0 0 0 147.968-148.010666 148.352 148.352 0 0 0-148.053333-148.053334z m0-526.976c41.898667 0 75.989333 34.133333 75.989334 75.989333 0 41.898667-34.090667 75.989333-75.946667 75.989333-41.941333 0-76.032-34.090667-76.032-75.946666 0-41.941333 34.133333-76.032 75.989333-76.032zM240.682667 640a126.122667 126.122667 0 0 1-126.037334-125.994667 126.122667 126.122667 0 0 1 126.037334-125.994666 126.122667 126.122667 0 0 1 125.994666 125.994666A126.122667 126.122667 0 0 1 240.64 640z m551.978666 247.082667c-41.898667 0-75.989333-34.090667-75.989333-75.946667 0-41.941333 34.133333-76.032 75.989333-76.032 41.898667 0 75.989333 34.133333 75.989334 75.989333 0 41.898667-34.090667 75.989333-75.946667 75.989334z" fill="#ffffff" opacity=".65" p-id="36700"></path></svg>