<?xml version="1.0" standalone="no"?><!DOCTYPE svg PUBLIC "-//W3C//DTD SVG 1.1//EN" "http://www.w3.org/Graphics/SVG/1.1/DTD/svg11.dtd"><svg t="1763347218239" class="icon" viewBox="0 0 1024 1024" version="1.1" xmlns="http://www.w3.org/2000/svg" p-id="65804" width="24" height="24" xmlns:xlink="http://www.w3.org/1999/xlink"><path d="M879.3 398.3c-24.6 0-44.6-20-44.6-44.6V224.2c0-19.7-16-35.7-35.7-35.7H665.4c-24.6 0-44.6-20-44.6-44.6s20-44.6 44.6-44.6h133.7c68.8 0 124.9 56 124.9 124.9v129.5c-0.1 24.6-20.1 44.6-44.7 44.6zM143.3 398.3c-24.6 0-44.6-20-44.6-44.6V224.2c0-68.8 56-124.9 124.9-124.9h135.7c24.6 0 44.6 20 44.6 44.6s-20 44.6-44.6 44.6H223.6c-19.7 0-35.7 16-35.7 35.7v129.5c0.1 24.6-19.9 44.6-44.6 44.6zM359.3 926H223.6c-68.8 0-124.9-56-124.9-124.9V656.8c0-24.6 20-44.6 44.6-44.6s44.6 20 44.6 44.6v144.4c0 19.7 16 35.7 35.7 35.7h135.7c24.6 0 44.6 20 44.6 44.6s-20 44.5-44.6 44.5zM799.1 926H665.4c-24.6 0-44.6-20-44.6-44.6s20-44.6 44.6-44.6h133.7c19.7 0 35.7-16 35.7-35.7V655.3c0-24.6 20-44.6 44.6-44.6s44.6 20 44.6 44.6v145.9C923.9 870 867.9 926 799.1 926zM879.3 547.4h-736c-24.6 0-44.6-20-44.6-44.6s20-44.6 44.6-44.6h736c24.6 0 44.6 20 44.6 44.6s-20 44.6-44.6 44.6z" fill="#F60808" p-id="65805"></path></svg>