<?xml version="1.0" standalone="no"?><!DOCTYPE svg PUBLIC "-//W3C//DTD SVG 1.1//EN" "http://www.w3.org/Graphics/SVG/1.1/DTD/svg11.dtd"><svg t="1763348568834" class="icon" viewBox="0 0 1024 1024" version="1.1" xmlns="http://www.w3.org/2000/svg" p-id="91139" xmlns:xlink="http://www.w3.org/1999/xlink" width="20" height="20"><path d="M857.196485 325.771575 730.863195 325.771575c1.321088-1.635243 2.625804-3.362584 3.916193-5.206582 24.133653-34.505885 36.47268-74.543763 34.737152-112.737644-0.88209-19.47761-5.359055-37.531801-13.301957-53.656037-8.555863-17.372669-20.698414-31.637558-36.084846-42.398646-15.385409-10.761088-32.95046-17.271362-52.202942-19.351744-17.872043-1.932002-36.365232 0.059352-54.965869 5.909593-36.471656 11.473309-69.847811 36.796044-93.982488 71.301929-2.111081 3.018753-4.125971 6.082532-6.055926 9.181103-1.928932-3.098571-3.944845-6.16235-6.055926-9.181103-24.134677-34.506908-57.510832-59.82862-93.982488-71.301929-18.600637-5.851265-37.09485-7.841595-54.963823-5.909593-19.253506 2.080382-36.817534 8.590656-52.204989 19.351744-15.387455 10.760065-27.526937 25.025976-36.084846 42.398646-7.944949 16.124236-12.419867 34.178427-13.302981 53.656037-1.732457 38.193881 10.603499 78.232782 34.738176 112.737644 1.289366 1.845021 2.596128 3.572362 3.916193 5.206582L162.709267 325.771575c-42.770106 0-77.567633 34.796504-77.567633 77.56661l0 49.012274c0 42.771129 34.796504 77.567633 77.567633 77.567633l3.741207 0 0 321.06846c0 42.771129 34.796504 77.567633 77.567633 77.567633l536.650423 0c42.770106 0 77.56661-34.797527 77.56661-77.567633l0-321.082786c42.293245-0.559748 76.527954-35.131125 76.527954-77.55433l0-49.012274C934.764118 360.568079 899.966591 325.771575 857.196485 325.771575L857.196485 325.771575zM565.303508 202.030319c15.672958-25.239847 39.977503-42.024116 64.62281-49.777707 8.532327-2.685155 16.844643-4.015454 24.712845-4.015454 12.419867 0 23.738657 3.315512 33.092699 9.856485 15.281031 10.686387 24.2718 29.258371 25.315572 52.29504 1.172709 25.807782-10.009981 58.139142-32.358989 77.713966-49.077765 42.983977-107.804285 40.122813-123.084293 29.436426C546.153356 309.532729 533.720186 252.885568 565.303508 202.030319L565.303508 202.030319zM312.799634 210.388684c1.044796-23.035646 10.035564-41.608653 25.315572-52.29504 9.354042-6.541997 20.672832-9.855462 33.092699-9.855462 7.869225 0 16.180518 1.330298 24.712845 4.015454 24.644283 7.753591 48.949852 24.537859 64.623833 49.777707 31.580253 50.855248 19.149129 107.501386 7.698333 115.50978-15.281031 10.68741-74.007551 13.548574-123.084293-29.435403C322.809615 268.529873 311.627948 236.199537 312.799634 210.388684L312.799634 210.388684zM141.670092 452.351482l0-49.012274c0-11.601222 9.438976-21.040199 21.040199-21.040199l319.633784 0 0 91.091648L162.709267 473.390657C151.109068 473.389634 141.670092 463.952704 141.670092 452.351482L141.670092 452.351482zM222.979956 850.987574 222.979956 529.919115l259.364119 0 0 342.106612L244.020154 872.025727C232.417909 872.025727 222.979956 862.588797 222.979956 850.987574L222.979956 850.987574zM780.670577 872.025727 541.041942 872.025727 541.041942 529.919115l260.665765 0 0 321.06846C801.707706 862.588797 792.2718 872.025727 780.670577 872.025727L780.670577 872.025727zM878.23566 452.351482c0 11.600199-9.44 21.039175-21.040199 21.039175L541.041942 473.390657l0-91.091648L857.196485 382.299009c11.601222 0 21.040199 9.438976 21.040199 21.040199L878.236684 452.351482 878.23566 452.351482z" p-id="91140" fill="#f60808"></path></svg>