<?xml version="1.0" standalone="no"?><!DOCTYPE svg PUBLIC "-//W3C//DTD SVG 1.1//EN" "http://www.w3.org/Graphics/SVG/1.1/DTD/svg11.dtd"><svg t="1763349218991" class="icon" viewBox="0 0 1024 1024" version="1.1" xmlns="http://www.w3.org/2000/svg" p-id="97172" xmlns:xlink="http://www.w3.org/1999/xlink" width="20" height="20"><path d="M20.48 10.24h983.04v983.04H20.48z" fill="#FFFFFF" p-id="97173"></path><path d="M406.7328 91.46368a30.72 30.72 0 0 0-17.53088 27.72992c0 26.86976-3.85024 61.27616-10.6496 94.45376-6.79936 33.5872-16.13824 63.20128-25.92768 81.63328-11.63264 21.83168-17.69472 31.5392-23.83872 39.56736-4.62848 6.02112-9.25696 11.0592-16.67072 19.2512l-12.94336 14.336c-6.43072 7.20896-12.24704 13.47584-17.73568 19.37408-18.30912 19.6608-32.84992 35.2256-53.28896 68.48512-29.4912 47.9232-33.792 108.91264-33.792 149.0944 0 178.50368 144.50688 309.6576 317.6448 309.6576 174.03904 0 317.6448-138.11712 317.6448-315.8016 0-41.49248-2.2528-87.12192-25.3952-156.672l-29.12256 9.66656 29.12256-9.66656c-10.8544-32.68608-17.8176-52.4288-25.14944-69.2224-7.41376-17.08032-15.07328-30.63808-26.54208-50.7904a30.72 30.72 0 0 0-57.18016 11.59168c-3.93216 33.01376-15.81056 56.5248-28.54912 73.15456a862.208 862.208 0 0 0-9.91232-29.81888c-14.336-40.67328-35.4304-90.9312-61.8496-129.59744-43.33568-63.52896-100.39296-108.62592-138.4448-138.6496a1392.35328 1392.35328 0 0 1-17.28512-13.84448 30.72 30.72 0 0 0-32.60416-3.93216zM446.464 179.8144c-1.96608 15.31904-4.5056 30.88384-7.61856 46.08-7.3728 35.88096-18.10432 72.13056-31.9488 98.18112-12.04224 22.65088-20.02944 36.00384-29.36832 48.16896-6.22592 8.11008-13.27104 15.85152-21.79072 25.23136l-10.6496 11.8784m101.376-229.53984c32.5632 26.8288 68.64896 59.8016 97.8944 102.68672 21.95456 32.11264 40.96 76.47232 54.6816 115.34336 6.7584 19.21024 12.00128 36.49536 15.5648 49.52064 1.76128 6.51264 3.072 11.75552 3.8912 15.52384 0.6144 2.74432 0.8192 3.8912 0.8192 4.01408a30.72 30.72 0 0 0 49.39776 22.528l2.78528-2.12992c11.4688-8.6016 39.15776-29.12256 60.12928-67.1744 3.8912 10.6496 8.43776 23.87968 14.37696 41.7792 20.48 61.48096 22.24128 100.18816 22.24128 137.33888 0 142.78656-115.22048 254.32064-256.2048 254.32064-141.88544 0-256.2048-106.2912-256.2048-248.2176 0-38.46144 4.7104-84.45952 24.65792-116.89984 17.08032-27.72992 27.2384-38.62528 44.31872-57.01632 5.77536-6.18496 12.32896-13.27104 20.23424-22.1184" fill="#f60808" p-id="97174" data-spm-anchor-id="a313x.search_index.0.i62.17293a81k1nhaK" class="selected"></path></svg>