<?xml version="1.0" standalone="no"?><!DOCTYPE svg PUBLIC "-//W3C//DTD SVG 1.1//EN" "http://www.w3.org/Graphics/SVG/1.1/DTD/svg11.dtd"><svg t="1763349104174" class="icon" viewBox="0 0 1024 1024" version="1.1" xmlns="http://www.w3.org/2000/svg" p-id="95809" xmlns:xlink="http://www.w3.org/1999/xlink" width="20" height="20"><path d="M512 42.667A469.333 469.333 0 1 0 981.333 512 469.333 469.333 0 0 0 512 42.667z m-93.227 795.52a45.867 45.867 0 1 1 45.867-45.867 45.867 45.867 0 0 1-45.867 45.867z m282.24 0a45.867 45.867 0 1 1 45.654-45.654 45.867 45.867 0 0 1-45.867 45.654z m119.894-467.84l-20.267 161.92a93.867 93.867 0 0 1-86.827 81.92L399.147 635.52l3.84 21.333 343.68-1.92a32 32 0 0 1 0 64H401.92a64 64 0 0 1-61.867-51.413l-70.4-379.947h-34.986a32 32 0 0 1 0-64h36.053a64 64 0 0 1 61.867 51.414l54.826 296.746L709.547 550.4a29.867 29.867 0 0 0 27.52-26.027l20.266-161.706h-350.08a32 32 0 0 1 0-64H758.4a62.933 62.933 0 0 1 62.293 70.613z" p-id="95810" data-spm-anchor-id="a313x.search_index.0.i55.17293a81k1nhaK" class="" fill="#f60808"></path></svg>